<mxfile host="app.diagrams.net" modified="2021-01-06T23:00:50.091Z" agent="5.0 (Windows NT 10.0; Win64; x64) AppleWebKit/537.36 (KHTML, like Gecko) Chrome/87.0.4280.88 Safari/537.36" etag="vynrPhV2SKZa8B9A1jUo" version="14.1.5" type="github">
  <diagram id="C5RBs43oDa-KdzZeNtuy" name="Page-1">
    <mxGraphModel dx="662" dy="1743" grid="1" gridSize="10" guides="1" tooltips="1" connect="1" arrows="1" fold="1" page="1" pageScale="1" pageWidth="827" pageHeight="1169" math="0" shadow="0">
      <root>
        <mxCell id="WIyWlLk6GJQsqaUBKTNV-0" />
        <mxCell id="WIyWlLk6GJQsqaUBKTNV-1" parent="WIyWlLk6GJQsqaUBKTNV-0" />
        <mxCell id="WIyWlLk6GJQsqaUBKTNV-2" value="" style="rounded=0;html=1;jettySize=auto;orthogonalLoop=1;fontSize=11;endArrow=block;endFill=0;endSize=8;strokeWidth=1;shadow=0;labelBackgroundColor=none;edgeStyle=orthogonalEdgeStyle;" parent="WIyWlLk6GJQsqaUBKTNV-1" source="WIyWlLk6GJQsqaUBKTNV-3" target="6cipaw3UmNE6FOIUOwpC-0" edge="1">
          <mxGeometry relative="1" as="geometry">
            <mxPoint x="230" y="110" as="targetPoint" />
          </mxGeometry>
        </mxCell>
        <mxCell id="WIyWlLk6GJQsqaUBKTNV-3" value="&lt;div&gt;Enter choice&lt;/div&gt;&lt;div&gt;0 ,1 ,2&lt;br&gt;&lt;/div&gt;" style="rounded=1;whiteSpace=wrap;html=1;fontSize=12;glass=0;strokeWidth=1;shadow=0;" parent="WIyWlLk6GJQsqaUBKTNV-1" vertex="1">
          <mxGeometry x="160" y="-80" width="120" height="40" as="geometry" />
        </mxCell>
        <mxCell id="WIyWlLk6GJQsqaUBKTNV-4" value="Yes" style="rounded=0;html=1;jettySize=auto;orthogonalLoop=1;fontSize=11;endArrow=block;endFill=0;endSize=8;strokeWidth=1;shadow=0;labelBackgroundColor=none;edgeStyle=orthogonalEdgeStyle;" parent="WIyWlLk6GJQsqaUBKTNV-1" source="WIyWlLk6GJQsqaUBKTNV-6" target="WIyWlLk6GJQsqaUBKTNV-10" edge="1">
          <mxGeometry x="-1" y="114" relative="1" as="geometry">
            <mxPoint x="-24" y="-70" as="offset" />
          </mxGeometry>
        </mxCell>
        <mxCell id="WIyWlLk6GJQsqaUBKTNV-5" value="No" style="edgeStyle=orthogonalEdgeStyle;rounded=0;html=1;jettySize=auto;orthogonalLoop=1;fontSize=11;endArrow=block;endFill=0;endSize=8;strokeWidth=1;shadow=0;labelBackgroundColor=none;exitX=1;exitY=0.5;exitDx=0;exitDy=0;" parent="WIyWlLk6GJQsqaUBKTNV-1" source="WIyWlLk6GJQsqaUBKTNV-6" target="WIyWlLk6GJQsqaUBKTNV-7" edge="1">
          <mxGeometry x="-1" y="-78" relative="1" as="geometry">
            <mxPoint x="-55" y="-23" as="offset" />
            <Array as="points">
              <mxPoint x="490" y="185" />
            </Array>
          </mxGeometry>
        </mxCell>
        <mxCell id="WIyWlLk6GJQsqaUBKTNV-6" value="while&lt;br&gt;choice &amp;gt; 2" style="rhombus;whiteSpace=wrap;html=1;shadow=0;fontFamily=Helvetica;fontSize=12;align=center;strokeWidth=1;spacing=6;spacingTop=-4;" parent="WIyWlLk6GJQsqaUBKTNV-1" vertex="1">
          <mxGeometry x="145" y="130" width="150" height="110" as="geometry" />
        </mxCell>
        <mxCell id="6cipaw3UmNE6FOIUOwpC-3" style="edgeStyle=orthogonalEdgeStyle;rounded=0;orthogonalLoop=1;jettySize=auto;html=1;entryX=1;entryY=0.5;entryDx=0;entryDy=0;" edge="1" parent="WIyWlLk6GJQsqaUBKTNV-1" source="WIyWlLk6GJQsqaUBKTNV-7" target="6cipaw3UmNE6FOIUOwpC-0">
          <mxGeometry relative="1" as="geometry">
            <mxPoint x="580" y="110" as="sourcePoint" />
            <Array as="points">
              <mxPoint x="490" y="40" />
            </Array>
          </mxGeometry>
        </mxCell>
        <mxCell id="WIyWlLk6GJQsqaUBKTNV-7" value="&lt;div&gt;invalid input&lt;/div&gt;&lt;div&gt;0 ,1, 2&lt;br&gt;&lt;/div&gt;" style="rounded=1;whiteSpace=wrap;html=1;fontSize=12;glass=0;strokeWidth=1;shadow=0;" parent="WIyWlLk6GJQsqaUBKTNV-1" vertex="1">
          <mxGeometry x="430" y="100" width="120" height="40" as="geometry" />
        </mxCell>
        <mxCell id="WIyWlLk6GJQsqaUBKTNV-8" value="No" style="rounded=0;html=1;jettySize=auto;orthogonalLoop=1;fontSize=11;endArrow=block;endFill=0;endSize=8;strokeWidth=1;shadow=0;labelBackgroundColor=none;edgeStyle=orthogonalEdgeStyle;" parent="WIyWlLk6GJQsqaUBKTNV-1" source="WIyWlLk6GJQsqaUBKTNV-10" target="Ailc4nssIk83CFcEqObT-2" edge="1">
          <mxGeometry x="0.3333" y="20" relative="1" as="geometry">
            <mxPoint as="offset" />
          </mxGeometry>
        </mxCell>
        <mxCell id="WIyWlLk6GJQsqaUBKTNV-9" value="Yes" style="edgeStyle=orthogonalEdgeStyle;rounded=0;html=1;jettySize=auto;orthogonalLoop=1;fontSize=11;endArrow=block;endFill=0;endSize=8;strokeWidth=1;shadow=0;labelBackgroundColor=none;" parent="WIyWlLk6GJQsqaUBKTNV-1" source="WIyWlLk6GJQsqaUBKTNV-10" target="WIyWlLk6GJQsqaUBKTNV-12" edge="1">
          <mxGeometry x="-0.697" y="25" relative="1" as="geometry">
            <mxPoint x="1" as="offset" />
          </mxGeometry>
        </mxCell>
        <mxCell id="WIyWlLk6GJQsqaUBKTNV-10" value="if choice == cmp choice" style="rhombus;whiteSpace=wrap;html=1;shadow=0;fontFamily=Helvetica;fontSize=12;align=center;strokeWidth=1;spacing=6;spacingTop=-4;" parent="WIyWlLk6GJQsqaUBKTNV-1" vertex="1">
          <mxGeometry x="142.5" y="300" width="155" height="130" as="geometry" />
        </mxCell>
        <mxCell id="WIyWlLk6GJQsqaUBKTNV-12" value="print(&quot;draw&quot; )" style="rounded=1;whiteSpace=wrap;html=1;fontSize=12;glass=0;strokeWidth=1;shadow=0;" parent="WIyWlLk6GJQsqaUBKTNV-1" vertex="1">
          <mxGeometry x="380" y="345" width="120" height="40" as="geometry" />
        </mxCell>
        <mxCell id="6cipaw3UmNE6FOIUOwpC-7" style="edgeStyle=orthogonalEdgeStyle;rounded=0;orthogonalLoop=1;jettySize=auto;html=1;fontFamily=Tahoma;" edge="1" parent="WIyWlLk6GJQsqaUBKTNV-1" source="Ailc4nssIk83CFcEqObT-2" target="6cipaw3UmNE6FOIUOwpC-6">
          <mxGeometry relative="1" as="geometry" />
        </mxCell>
        <mxCell id="6cipaw3UmNE6FOIUOwpC-25" value="Yes" style="edgeLabel;html=1;align=center;verticalAlign=middle;resizable=0;points=[];fontFamily=Tahoma;" vertex="1" connectable="0" parent="6cipaw3UmNE6FOIUOwpC-7">
          <mxGeometry x="-0.2615" y="-5" relative="1" as="geometry">
            <mxPoint x="-11.5" y="-25" as="offset" />
          </mxGeometry>
        </mxCell>
        <mxCell id="6cipaw3UmNE6FOIUOwpC-9" value="No" style="edgeStyle=orthogonalEdgeStyle;rounded=0;orthogonalLoop=1;jettySize=auto;html=1;fontFamily=Tahoma;" edge="1" parent="WIyWlLk6GJQsqaUBKTNV-1" source="Ailc4nssIk83CFcEqObT-2" target="6cipaw3UmNE6FOIUOwpC-8">
          <mxGeometry relative="1" as="geometry" />
        </mxCell>
        <mxCell id="Ailc4nssIk83CFcEqObT-2" value="if cmp choice == 2 and choice == 0" style="rhombus;whiteSpace=wrap;html=1;shadow=0;fontFamily=Helvetica;fontSize=12;align=center;strokeWidth=1;spacing=6;spacingTop=-4;" parent="WIyWlLk6GJQsqaUBKTNV-1" vertex="1">
          <mxGeometry x="137.5" y="470" width="165" height="130" as="geometry" />
        </mxCell>
        <mxCell id="6cipaw3UmNE6FOIUOwpC-2" style="edgeStyle=orthogonalEdgeStyle;rounded=0;orthogonalLoop=1;jettySize=auto;html=1;entryX=0.5;entryY=0;entryDx=0;entryDy=0;" edge="1" parent="WIyWlLk6GJQsqaUBKTNV-1" source="6cipaw3UmNE6FOIUOwpC-0" target="WIyWlLk6GJQsqaUBKTNV-6">
          <mxGeometry relative="1" as="geometry" />
        </mxCell>
        <mxCell id="6cipaw3UmNE6FOIUOwpC-0" value="&lt;div&gt;radndom.randint(0,2)&lt;/div&gt;&lt;div&gt;cmp choice&lt;/div&gt;" style="rounded=1;whiteSpace=wrap;html=1;fontSize=12;glass=0;strokeWidth=1;shadow=0;" vertex="1" parent="WIyWlLk6GJQsqaUBKTNV-1">
          <mxGeometry x="160" y="20" width="120" height="40" as="geometry" />
        </mxCell>
        <mxCell id="6cipaw3UmNE6FOIUOwpC-5" value="0 -&amp;gt; scissor&lt;br&gt;1 -&amp;gt; paper&lt;br&gt;2 -&amp;gt; rock" style="text;html=1;resizable=0;autosize=1;align=left;verticalAlign=middle;points=[];fillColor=none;rounded=0;fontFamily=Tahoma;labelBackgroundColor=#A9C4EB;strokeColor=#000000;" vertex="1" parent="WIyWlLk6GJQsqaUBKTNV-1">
          <mxGeometry x="580" y="700" width="80" height="50" as="geometry" />
        </mxCell>
        <mxCell id="6cipaw3UmNE6FOIUOwpC-6" value="print(&quot;You loose&quot; )" style="rounded=1;whiteSpace=wrap;html=1;fontSize=12;glass=0;strokeWidth=1;shadow=0;" vertex="1" parent="WIyWlLk6GJQsqaUBKTNV-1">
          <mxGeometry x="380" y="515" width="120" height="40" as="geometry" />
        </mxCell>
        <mxCell id="6cipaw3UmNE6FOIUOwpC-11" value="&amp;nbsp;Yes&amp;nbsp;&amp;nbsp;" style="edgeStyle=orthogonalEdgeStyle;rounded=0;orthogonalLoop=1;jettySize=auto;html=1;fontFamily=Tahoma;" edge="1" parent="WIyWlLk6GJQsqaUBKTNV-1" source="6cipaw3UmNE6FOIUOwpC-8" target="6cipaw3UmNE6FOIUOwpC-10">
          <mxGeometry relative="1" as="geometry" />
        </mxCell>
        <mxCell id="6cipaw3UmNE6FOIUOwpC-13" value="No" style="edgeStyle=orthogonalEdgeStyle;rounded=0;orthogonalLoop=1;jettySize=auto;html=1;fontFamily=Tahoma;" edge="1" parent="WIyWlLk6GJQsqaUBKTNV-1" source="6cipaw3UmNE6FOIUOwpC-8" target="6cipaw3UmNE6FOIUOwpC-16">
          <mxGeometry relative="1" as="geometry">
            <mxPoint x="220" y="840" as="targetPoint" />
          </mxGeometry>
        </mxCell>
        <mxCell id="6cipaw3UmNE6FOIUOwpC-8" value="if cmp choice == 0 and choice == 1" style="rhombus;whiteSpace=wrap;html=1;shadow=0;fontFamily=Helvetica;fontSize=12;align=center;strokeWidth=1;spacing=6;spacingTop=-4;" vertex="1" parent="WIyWlLk6GJQsqaUBKTNV-1">
          <mxGeometry x="137.5" y="660" width="165" height="130" as="geometry" />
        </mxCell>
        <mxCell id="6cipaw3UmNE6FOIUOwpC-10" value="print(&quot;You loose&quot; )" style="rounded=1;whiteSpace=wrap;html=1;fontSize=12;glass=0;strokeWidth=1;shadow=0;" vertex="1" parent="WIyWlLk6GJQsqaUBKTNV-1">
          <mxGeometry x="380" y="705" width="120" height="40" as="geometry" />
        </mxCell>
        <mxCell id="6cipaw3UmNE6FOIUOwpC-18" value="No" style="edgeStyle=orthogonalEdgeStyle;rounded=0;orthogonalLoop=1;jettySize=auto;html=1;fontFamily=Tahoma;" edge="1" parent="WIyWlLk6GJQsqaUBKTNV-1" source="6cipaw3UmNE6FOIUOwpC-28" target="6cipaw3UmNE6FOIUOwpC-17">
          <mxGeometry relative="1" as="geometry" />
        </mxCell>
        <mxCell id="6cipaw3UmNE6FOIUOwpC-24" value="&amp;nbsp;Yes&amp;nbsp;" style="edgeStyle=orthogonalEdgeStyle;rounded=0;orthogonalLoop=1;jettySize=auto;html=1;fontFamily=Tahoma;" edge="1" parent="WIyWlLk6GJQsqaUBKTNV-1" source="6cipaw3UmNE6FOIUOwpC-16" target="6cipaw3UmNE6FOIUOwpC-23">
          <mxGeometry relative="1" as="geometry" />
        </mxCell>
        <mxCell id="6cipaw3UmNE6FOIUOwpC-16" value="if choice &amp;gt; cmp choice&amp;nbsp;" style="rhombus;whiteSpace=wrap;html=1;shadow=0;fontFamily=Helvetica;fontSize=12;align=center;strokeWidth=1;spacing=6;spacingTop=-4;" vertex="1" parent="WIyWlLk6GJQsqaUBKTNV-1">
          <mxGeometry x="142.5" y="840" width="155" height="130" as="geometry" />
        </mxCell>
        <mxCell id="6cipaw3UmNE6FOIUOwpC-20" style="edgeStyle=orthogonalEdgeStyle;rounded=0;orthogonalLoop=1;jettySize=auto;html=1;fontFamily=Tahoma;entryX=0;entryY=0.5;entryDx=0;entryDy=0;exitX=0;exitY=0.5;exitDx=0;exitDy=0;" edge="1" parent="WIyWlLk6GJQsqaUBKTNV-1" source="6cipaw3UmNE6FOIUOwpC-17" target="6cipaw3UmNE6FOIUOwpC-21">
          <mxGeometry relative="1" as="geometry">
            <Array as="points">
              <mxPoint x="80" y="1310" />
              <mxPoint x="80" y="-185" />
            </Array>
          </mxGeometry>
        </mxCell>
        <mxCell id="6cipaw3UmNE6FOIUOwpC-17" value="print(&quot;Play again&quot; )" style="rounded=1;whiteSpace=wrap;html=1;fontSize=12;glass=0;strokeWidth=1;shadow=0;" vertex="1" parent="WIyWlLk6GJQsqaUBKTNV-1">
          <mxGeometry x="160" y="1290" width="120" height="40" as="geometry" />
        </mxCell>
        <mxCell id="6cipaw3UmNE6FOIUOwpC-22" value="Yes" style="edgeStyle=orthogonalEdgeStyle;rounded=0;orthogonalLoop=1;jettySize=auto;html=1;fontFamily=Tahoma;" edge="1" parent="WIyWlLk6GJQsqaUBKTNV-1" source="6cipaw3UmNE6FOIUOwpC-21" target="WIyWlLk6GJQsqaUBKTNV-3">
          <mxGeometry relative="1" as="geometry" />
        </mxCell>
        <mxCell id="6cipaw3UmNE6FOIUOwpC-27" value="" style="edgeStyle=orthogonalEdgeStyle;rounded=0;orthogonalLoop=1;jettySize=auto;html=1;fontFamily=Tahoma;" edge="1" parent="WIyWlLk6GJQsqaUBKTNV-1" source="6cipaw3UmNE6FOIUOwpC-21" target="6cipaw3UmNE6FOIUOwpC-26">
          <mxGeometry relative="1" as="geometry" />
        </mxCell>
        <mxCell id="6cipaw3UmNE6FOIUOwpC-21" value="while play_again&lt;br&gt;== yes" style="rhombus;whiteSpace=wrap;html=1;shadow=0;fontFamily=Helvetica;fontSize=12;align=center;strokeWidth=1;spacing=6;spacingTop=-4;" vertex="1" parent="WIyWlLk6GJQsqaUBKTNV-1">
          <mxGeometry x="155" y="-240" width="130" height="110" as="geometry" />
        </mxCell>
        <mxCell id="6cipaw3UmNE6FOIUOwpC-23" value="print(&quot;You win&quot; )" style="rounded=1;whiteSpace=wrap;html=1;fontSize=12;glass=0;strokeWidth=1;shadow=0;" vertex="1" parent="WIyWlLk6GJQsqaUBKTNV-1">
          <mxGeometry x="380" y="885" width="120" height="40" as="geometry" />
        </mxCell>
        <mxCell id="6cipaw3UmNE6FOIUOwpC-26" value="&lt;div&gt;End&lt;/div&gt;" style="rounded=1;whiteSpace=wrap;html=1;fontSize=12;glass=0;strokeWidth=1;shadow=0;" vertex="1" parent="WIyWlLk6GJQsqaUBKTNV-1">
          <mxGeometry x="340" y="-205" width="120" height="40" as="geometry" />
        </mxCell>
        <mxCell id="6cipaw3UmNE6FOIUOwpC-31" value="" style="edgeStyle=orthogonalEdgeStyle;rounded=0;orthogonalLoop=1;jettySize=auto;html=1;fontFamily=Tahoma;" edge="1" parent="WIyWlLk6GJQsqaUBKTNV-1" source="6cipaw3UmNE6FOIUOwpC-28" target="6cipaw3UmNE6FOIUOwpC-30">
          <mxGeometry relative="1" as="geometry" />
        </mxCell>
        <mxCell id="6cipaw3UmNE6FOIUOwpC-28" value="if cmp choice == 1 and choice == 0" style="rhombus;whiteSpace=wrap;html=1;shadow=0;fontFamily=Helvetica;fontSize=12;align=center;strokeWidth=1;spacing=6;spacingTop=-4;" vertex="1" parent="WIyWlLk6GJQsqaUBKTNV-1">
          <mxGeometry x="137.5" y="1080" width="165" height="130" as="geometry" />
        </mxCell>
        <mxCell id="6cipaw3UmNE6FOIUOwpC-29" value="No" style="edgeStyle=orthogonalEdgeStyle;rounded=0;orthogonalLoop=1;jettySize=auto;html=1;fontFamily=Tahoma;" edge="1" parent="WIyWlLk6GJQsqaUBKTNV-1" source="6cipaw3UmNE6FOIUOwpC-16" target="6cipaw3UmNE6FOIUOwpC-28">
          <mxGeometry relative="1" as="geometry">
            <mxPoint x="220" y="970" as="sourcePoint" />
            <mxPoint x="220" y="1290" as="targetPoint" />
          </mxGeometry>
        </mxCell>
        <mxCell id="6cipaw3UmNE6FOIUOwpC-30" value="print(&quot;You win&quot; )" style="rounded=1;whiteSpace=wrap;html=1;fontSize=12;glass=0;strokeWidth=1;shadow=0;" vertex="1" parent="WIyWlLk6GJQsqaUBKTNV-1">
          <mxGeometry x="380" y="1125" width="120" height="40" as="geometry" />
        </mxCell>
      </root>
    </mxGraphModel>
  </diagram>
</mxfile>
